<!--Generator: Apple Native CoreSVG 341-->
<!DOCTYPE svg  PUBLIC '-//W3C//DTD SVG 1.1//EN'  'http://www.w3.org/Graphics/SVG/1.1/DTD/svg11.dtd'>
<svg version="1.1" viewBox="0 0 14.797 14.419" xmlns="http://www.w3.org/2000/svg">
 <rect width="14.797" height="14.419" opacity="0"/>
 <path d="m0.27467 14.148c0.36133 0.3516 0.85938 0.3711 1.2305 0l9.9121-9.9024 1.9922-2.1484c0.3321-0.33203 0.3321-0.77149 0.0098-1.084-0.3223-0.32226-0.7715-0.33203-1.0937 0l-2.1485 1.9922-9.9023 9.9121c-0.37109 0.3711-0.36133 0.8692 0 1.2305zm12.383-6.9336v3.6035c0 0.4688 0.4101 0.8887 0.8887 0.8887 0.4687 0 0.8886-0.3906 0.8886-0.9277l-0.0097-9.8145c0-0.56641-0.3711-0.94727-0.9473-0.94727h-9.8242c-0.54688 0-0.91797 0.41016-0.91797 0.87891s0.41992 0.86914 0.8789 0.86914h3.3984l5.879-0.19532z" fill="#fff"/>
</svg>
