<!--Generator: Apple Native CoreSVG 341-->
<!DOCTYPE svg  PUBLIC '-//W3C//DTD SVG 1.1//EN'  'http://www.w3.org/Graphics/SVG/1.1/DTD/svg11.dtd'>
<svg version="1.1" viewBox="0 0 18.496 14.814" xmlns="http://www.w3.org/2000/svg">
 <rect width="18.496" height="14.814" opacity="0"/>
 <path d="m7.4219 14.805c0.47851 0 0.85937-0.3516 0.85937-0.8399 0-0.2343-0.08789-0.4687-0.24414-0.6152l-2.1875-2.2266-4.0723-3.7207 4.0723-3.7207 2.1875-2.2266c0.15625-0.15625 0.24414-0.38086 0.24414-0.61524 0-0.48828-0.38086-0.83984-0.85937-0.83984-0.23438 0-0.43946 0.078125-0.6543 0.29297l-6.4648 6.4551c-0.19531 0.18554-0.30273 0.41015-0.30273 0.65429s0.10742 0.46875 0.30273 0.6543l6.4844 6.4746c0.19531 0.1856 0.40039 0.2735 0.63477 0.2735zm-2.5-6.5332h12.354c0.5078 0 0.8594-0.36132 0.8594-0.86914 0-0.50781-0.3516-0.86914-0.8594-0.86914h-12.354l-3.1445 0.19532c-0.40039 0-0.67382 0.27343-0.67382 0.67382s0.27343 0.67383 0.67382 0.67383z" fill="#fff"/>
</svg>
