<!--Generator: Apple Native CoreSVG 341-->
<!DOCTYPE svg  PUBLIC '-//W3C//DTD SVG 1.1//EN'  'http://www.w3.org/Graphics/SVG/1.1/DTD/svg11.dtd'>
<svg version="1.1" viewBox="0 0 16.426 25.498" xmlns="http://www.w3.org/2000/svg">
 <rect width="16.426" height="25.498" opacity="0"/>
 <path d="m5.0492 24.492h5.9668c3.3984 0 5.0781-1.7188 5.0488-5.1563-0.039-3.9257-0.0586-6.7773-0.1562-8.916-0.2832-6.289-2.0508-8.1347-7.8711-8.1347s-7.5977 1.8457-7.8809 8.1347c-0.097657 2.1387-0.11719 4.9903-0.15625 8.916-0.029297 3.4375 1.6504 5.1563 5.0488 5.1563zm0-1.4356c-2.5879 0-3.6328-1.0644-3.6133-3.7011 0.03907-3.9258 0.06836-6.7578 0.16602-8.8672 0.24414-5.5274 1.416-6.7578 6.4356-6.7578 5.0098 0 6.1816 1.2305 6.4355 6.7578 0.0879 2.1094 0.1172 4.9414 0.1563 8.8672 0.0195 2.6367-1.0254 3.7011-3.6133 3.7011zm2.9883-23.057c-1.875 0-3.1934 1.2695-3.1934 2.998h1.377c0-0.94727 0.74219-1.6211 1.8164-1.6211 1.0644 0 1.8164 0.67383 1.8164 1.6211h1.3769c0-1.7285-1.3281-2.998-3.1933-2.998zm-3.2129 20.644h6.4258c0.8789 0 1.4551-0.5761 1.4551-1.4453v-4.9512c0-0.8789-0.5762-1.455-1.4551-1.455h-6.4258c-0.87891 0-1.4648 0.5859-1.4648 1.455v4.9512c0 0.8594 0.58594 1.4453 1.4648 1.4453zm0.23437-1.3672c-0.19531 0-0.32227-0.1269-0.32227-0.3125v-4.4824c0-0.1953 0.12696-0.3222 0.32227-0.3222h5.9472c0.1953 0 0.3223 0.1269 0.3223 0.3222v4.4824c0 0.1856-0.127 0.3125-0.3223 0.3125zm-0.91797-2.6367h7.7832v-1.2304h-7.7832z" fill="#fff"/>
</svg>
