<!--Generator: Apple Native CoreSVG 341-->
<!DOCTYPE svg  PUBLIC '-//W3C//DTD SVG 1.1//EN'  'http://www.w3.org/Graphics/SVG/1.1/DTD/svg11.dtd'>
<svg version="1.1" viewBox="0 0 20.073 23.146" xmlns="http://www.w3.org/2000/svg">
 <rect width="20.073" height="23.146" opacity="0"/>
 <path d="m0.065728 7.9159c-0.19531 0.55664 0.068359 1.0156 0.47852 1.1621 0.3125 0.11718 0.61524-0.0293 0.86914-0.23438 0.88868-0.6543 1.7383-0.94726 2.7539-0.57617 1.0156 0.36133 1.4258 1.1133 1.6016 2.1582 0.04883 0.3418 0.16602 0.6152 0.45899 0.7226 0.3125 0.1172 0.57617-0.0195 0.83984-0.2441 0.58594-0.498 1.377-0.752 2.1289-0.7129l-4.3262 11.856c-0.15625 0.4199 0.06835 0.8984 0.49804 1.0547 0.41016 0.1464 0.89844-0.0782 1.0547-0.4981l4.3164-11.856c0.5957 0.459 1.0253 1.1622 1.1523 1.9239 0.0684 0.3222 0.1758 0.6054 0.4785 0.7129 0.3027 0.1074 0.5664-0.0391 0.8301-0.2539 0.8105-0.6836 1.5918-0.9961 2.6074-0.6348 1.0156 0.3809 1.4844 1.1426 1.7383 2.2363 0.0781 0.3125 0.2051 0.6153 0.5176 0.7227 0.4101 0.1465 0.9277-0.0293 1.1133-0.586 1.3281-3.6425 0.4199-9.7168-5.459-12.314l0.5078-1.377c0.166-0.48828-0.0195-0.92774-0.4883-1.1035-0.4492-0.16602-0.8887 0.058594-1.0645 0.53711l-0.498 1.3867c-6.1719-1.7969-10.781 2.2559-12.109 5.918zm2.2852-1.1328c1.6602-2.5488 4.7852-4.1602 8.2812-3.5644-1.5722 1.0352-3.0859 2.8516-4.0722 5.1953-0.39063-0.75195-1.0254-1.2695-1.8652-1.5625-0.79101-0.2832-1.5625-0.3125-2.3438-0.06836zm5.3906 2.1192c1.1133-2.6465 2.9883-4.5508 4.6875-5.2344 0.8789 1.6211 1.0938 4.2773 0.2441 7.041-0.4687-0.81056-1.2597-1.4649-2.1484-1.7969-0.88866-0.32226-1.914-0.32226-2.7832-0.00976zm6.1426 2.1778c0.7617-2.4317 0.7715-4.7852 0.2344-6.5918 3.0468 1.7969 4.4043 5.0391 4.0332 8.0469-0.4395-0.6836-1.0547-1.1622-1.8262-1.4551-0.8399-0.3028-1.6602-0.3223-2.4414 0z" fill="#fff"/>
</svg>
