<svg xmlns="http://www.w3.org/2000/svg" viewBox="-5 -90 110 130" fill="white">
  <path d="M9.08203-50.0977C8.20312-47.6074 9.42383-45.5566 11.2305-44.9219C12.5977-44.4336 13.916-45.0684 14.9902-45.9473C18.3105-48.3887 21.5332-49.5605 25.4883-48.1445C29.4434-46.7285 30.957-43.7988 31.5918-39.8438C31.7871-38.4766 32.2754-37.207 33.5449-36.8164C34.9121-36.2793 36.0352-36.9141 37.1094-37.793C39.2578-39.6484 42.041-40.7227 44.8242-40.7227L27.7344 6.20117C27.0996 7.95898 28.0273 10.0586 29.8828 10.7422C31.6895 11.3281 33.7891 10.4004 34.4238 8.59375L51.5137-38.2812C53.6133-36.4746 55.0293-33.8867 55.5176-31.1035C55.8105-29.7363 56.2012-28.5156 57.5684-28.0762C58.8379-27.5879 59.9609-28.2227 61.0352-29.1016C64.1113-31.7383 67.0898-33.0078 71.0449-31.5918C75-30.127 76.709-27.1484 77.6855-23.0957C77.9297-21.6797 78.5645-20.3613 79.8828-19.9219C81.6895-19.2871 84.0332-20.0684 84.8633-22.5586C90.0391-36.7188 86.6699-60.7422 63.4766-71.1914L65.332-76.2695C66.0645-78.3691 65.2344-80.2734 63.2324-81.0547C61.2793-81.7871 59.4238-80.7617 58.6426-78.7109L56.7871-73.584C32.373-80.5664 14.2578-64.3555 9.08203-50.0977ZM19.3848-55.1758C26.0254-64.502 37.6465-69.6777 49.9512-68.0664C44.0918-63.916 38.623-57.2754 35.0586-48.9746C33.4473-51.5625 30.957-53.418 27.832-54.4922C25-55.5176 22.168-55.8105 19.3848-55.1758ZM40.2344-46.7773C44.3359-56.3477 51.416-63.3789 57.8125-66.1621C61.0352-59.9121 61.9141-49.9512 58.8867-39.9414C56.9824-42.9688 54.0039-45.2148 50.6836-46.4844C47.3633-47.7051 43.6035-47.8027 40.2344-46.7773ZM64.2578-38.3301C66.8945-46.9727 66.9434-55.5664 65.1855-62.5C75.6348-55.8105 81.1523-44.3848 80.2246-33.0566C78.4668-35.2539 76.1719-36.8652 73.3398-37.9395C70.2148-39.0625 67.1387-39.2578 64.2578-38.3301Z"/>
</svg>
