<!--Generator: Apple Native CoreSVG 341-->
<!DOCTYPE svg  PUBLIC '-//W3C//DTD SVG 1.1//EN'  'http://www.w3.org/Graphics/SVG/1.1/DTD/svg11.dtd'>
<svg version="1.1" viewBox="0 0 19.824 17.998" xmlns="http://www.w3.org/2000/svg">
 <rect width="19.824" height="17.998" opacity="0"/>
 <path d="m3.0664 17.998h13.34c2.0411 0 3.0567-1.0156 3.0567-3.0273v-11.924c0-2.0117-1.0156-3.0273-3.0567-3.0273h-13.34c-2.041 0-3.0664 1.0059-3.0664 3.0273v11.924c0 2.0215 1.0254 3.0273 3.0664 3.0273zm-0.14649-1.5722c-0.86914 0-1.3476-0.459-1.3476-1.3672v-9.209c0-0.89844 0.47851-1.3672 1.3476-1.3672h13.613c0.8691 0 1.3574 0.46875 1.3574 1.3672v9.209c0 0.9082-0.4883 1.3672-1.3574 1.3672zm4.9121-8.4375h0.57617c0.3418 0 0.44922-0.09766 0.44922-0.43945v-0.57617c0-0.3418-0.10742-0.44922-0.44922-0.44922h-0.57617c-0.3418 0-0.45898 0.10742-0.45898 0.44922v0.57617c0 0.34179 0.11718 0.43945 0.45898 0.43945zm3.2422 0h0.5762c0.3418 0 0.459-0.09766 0.459-0.43945v-0.57617c0-0.3418-0.1172-0.44922-0.459-0.44922h-0.5762c-0.3418 0-0.459 0.10742-0.459 0.44922v0.57617c0 0.34179 0.1172 0.43945 0.459 0.43945zm3.2422 0h0.5762c0.3418 0 0.459-0.09766 0.459-0.43945v-0.57617c0-0.3418-0.1172-0.44922-0.459-0.44922h-0.5762c-0.3418 0-0.4492 0.10742-0.4492 0.44922v0.57617c0 0.34179 0.1074 0.43945 0.4492 0.43945zm-9.7266 3.1933h0.56641c0.35156 0 0.45898-0.0976 0.45898-0.4394v-0.5762c0-0.34178-0.10742-0.43944-0.45898-0.43944h-0.56641c-0.35156 0-0.45898 0.09766-0.45898 0.43944v0.5762c0 0.3418 0.10742 0.4394 0.45898 0.4394zm3.2422 0h0.57617c0.3418 0 0.44922-0.0976 0.44922-0.4394v-0.5762c0-0.34178-0.10742-0.43944-0.44922-0.43944h-0.57617c-0.3418 0-0.45898 0.09766-0.45898 0.43944v0.5762c0 0.3418 0.11718 0.4394 0.45898 0.4394zm3.2422 0h0.5762c0.3418 0 0.459-0.0976 0.459-0.4394v-0.5762c0-0.34178-0.1172-0.43944-0.459-0.43944h-0.5762c-0.3418 0-0.459 0.09766-0.459 0.43944v0.5762c0 0.3418 0.1172 0.4394 0.459 0.4394zm3.2422 0h0.5762c0.3418 0 0.459-0.0976 0.459-0.4394v-0.5762c0-0.34178-0.1172-0.43944-0.459-0.43944h-0.5762c-0.3418 0-0.4492 0.09766-0.4492 0.43944v0.5762c0 0.3418 0.1074 0.4394 0.4492 0.4394zm-9.7266 3.2032h0.56641c0.35156 0 0.45898-0.1075 0.45898-0.4493v-0.5761c0-0.3418-0.10742-0.4395-0.45898-0.4395h-0.56641c-0.35156 0-0.45898 0.0977-0.45898 0.4395v0.5761c0 0.3418 0.10742 0.4493 0.45898 0.4493zm3.2422 0h0.57617c0.3418 0 0.44922-0.1075 0.44922-0.4493v-0.5761c0-0.3418-0.10742-0.4395-0.44922-0.4395h-0.57617c-0.3418 0-0.45898 0.0977-0.45898 0.4395v0.5761c0 0.3418 0.11718 0.4493 0.45898 0.4493zm3.2422 0h0.5762c0.3418 0 0.459-0.1075 0.459-0.4493v-0.5761c0-0.3418-0.1172-0.4395-0.459-0.4395h-0.5762c-0.3418 0-0.459 0.0977-0.459 0.4395v0.5761c0 0.3418 0.1172 0.4493 0.459 0.4493z" fill="#fff"/>
</svg>
