<!--Generator: Apple Native CoreSVG 341-->
<!DOCTYPE svg  PUBLIC '-//W3C//DTD SVG 1.1//EN'  'http://www.w3.org/Graphics/SVG/1.1/DTD/svg11.dtd'>
<svg version="1.1" viewBox="0 0 17.188 17.236" xmlns="http://www.w3.org/2000/svg">
 <rect width="17.188" height="17.236" opacity="0"/>
 <path d="m6.3672 17.236c0.41992 0 0.75195-0.1855 0.98633-0.5468l9.2285-14.531c0.1758-0.2832 0.2442-0.49804 0.2442-0.72265 0-0.53711-0.3516-0.88868-0.8887-0.88868-0.3906 0-0.6055 0.12695-0.8398 0.49804l-8.7696 13.975-4.5508-5.957c-0.24414-0.3418-0.48828-0.47852-0.83984-0.47852-0.55664 0-0.9375 0.38086-0.9375 0.91797 0 0.22461 0.097656 0.47852 0.2832 0.71285l5.0684 6.4551c0.29297 0.3809 0.59571 0.5664 1.0156 0.5664z" fill-opacity=".85"/>
</svg>
