<!--Generator: Apple Native CoreSVG 341-->
<!DOCTYPE svg  PUBLIC '-//W3C//DTD SVG 1.1//EN'  'http://www.w3.org/Graphics/SVG/1.1/DTD/svg11.dtd'>
<svg version="1.1" viewBox="0 0 17.324 10.4" xmlns="http://www.w3.org/2000/svg">
 <rect width="17.324" height="10.4" opacity="0"/>
 <path d="m8.4863 10.4c0.24414 0 0.48828-0.0977 0.65429-0.2832l7.5586-7.7442c0.166-0.16602 0.2637-0.38086 0.2637-0.625 0-0.50782-0.3809-0.89844-0.8887-0.89844-0.2441 0-0.4687 0.097657-0.6347 0.25391l-7.4805 7.6465h1.0449l-7.4805-7.6465c-0.15625-0.15625-0.38086-0.25391-0.63477-0.25391-0.50781 0-0.88867 0.39062-0.88867 0.89844 0 0.24414 0.097656 0.45898 0.26367 0.63476l7.5586 7.7344c0.18554 0.1855 0.41015 0.2832 0.66406 0.2832z" fill="#fff"/>
</svg>
