<svg xmlns="http://www.w3.org/2000/svg" viewBox="-5 -85 110 130" fill="white">
  <path d="M26.709-30.9082C25-30.9082 23.7305-32.2266 23.7305-33.8867C23.7305-35.5957 25-36.9141 26.709-36.9141L43.2129-36.9141L43.2129-59.0332C43.2129-60.7422 44.5312-62.0605 46.1914-62.0605C47.9004-62.0605 49.2188-60.7422 49.2188-59.0332L49.2188-33.8867C49.2188-32.2266 47.9004-30.9082 46.1914-30.9082ZM46.2402 4.15039C68.0176 4.15039 85.6934-13.5254 85.6934-35.2539C85.6934-56.9824 68.0176-74.6582 46.2402-74.6582C24.5117-74.6582 6.83594-56.9824 6.83594-35.2539C6.83594-13.5254 24.5117 4.15039 46.2402 4.15039Z"/>
</svg>
