<!--Generator: Apple Native CoreSVG 341-->
<!DOCTYPE svg  PUBLIC '-//W3C//DTD SVG 1.1//EN'  'http://www.w3.org/Graphics/SVG/1.1/DTD/svg11.dtd'>
<svg version="1.1" viewBox="0 0 23.389 17.978" xmlns="http://www.w3.org/2000/svg">
 <rect width="23.389" height="17.978" opacity="0"/>
 <path d="m23.027 3.0273v11.934c0 2.0118-1.0156 3.0176-3.0664 3.0176h-16.894c-2.041 0-3.0664-1.0058-3.0664-3.0176v-11.934c0-2.0117 1.0254-3.0273 3.0664-3.0273h16.894c2.0508 0 3.0664 1.0156 3.0664 3.0273zm-19.941-1.4551c-0.97656 0-1.5137 0.52734-1.5137 1.543v11.758c0 1.0157 0.53711 1.5332 1.5137 1.5332h16.855c0.9668 0 1.5137-0.5175 1.5137-1.5332v-11.758c0-1.0156-0.5469-1.543-1.5137-1.543zm10.762 12.09c0 0.332-0.2539 0.5859-0.6055 0.5859h-8.2617c-0.35156 0-0.60547-0.2539-0.60547-0.5859 0-0.3418 0.25391-0.6152 0.60547-0.6152h8.2617c0.3516 0 0.6055 0.2734 0.6055 0.6152zm0-9.3457c0 0.34179-0.2539 0.60547-0.6055 0.60547h-8.2617c-0.35156 0-0.60547-0.26368-0.60547-0.60547 0-0.33203 0.25391-0.59571 0.60547-0.59571h8.2617c0.3516 0 0.6055 0.26368 0.6055 0.59571z" fill="#fff"/>
 <path d="m20.215 7.9883v1.9922c0 0.80073-0.4785 1.3086-1.289 1.3086h-14.814c-0.81055 0-1.2891-0.5079-1.2891-1.3086v-1.9922c0-0.80078 0.47851-1.3086 1.2891-1.3086h14.814c0.8105 0 1.289 0.50781 1.289 1.3086zm-15.225 0.40039c-0.35156 0-0.61523 0.26367-0.61523 0.59571 0 0.34179 0.26367 0.60546 0.61523 0.60546h4.8047c0.35158 0 0.60548-0.26367 0.60548-0.60546 0-0.33204-0.2539-0.59571-0.60548-0.59571z" fill="#fff"/>
</svg>
