<!--Generator: Apple Native CoreSVG 341-->
<!DOCTYPE svg  PUBLIC '-//W3C//DTD SVG 1.1//EN'  'http://www.w3.org/Graphics/SVG/1.1/DTD/svg11.dtd'>
<svg version="1.1" viewBox="0 0 13.774 24.092" xmlns="http://www.w3.org/2000/svg">
 <rect width="13.774" height="24.092" opacity="0"/>
 <path d="m3.347 22.646c0.82032 0 1.3281-0.459 1.3184-1.2598l-0.19531-10.967c0-0.3418 0.14648-0.59568 0.44922-0.7324 1.2891-0.56641 1.8457-1.1621 1.7773-2.8711l-0.27344-5.9961c-0.01953-0.42969-0.27343-0.67383-0.67382-0.67383-0.38086 0-0.61524 0.25391-0.61524 0.69336l0.06836 5.8301c0 0.3418-0.21484 0.55664-0.53711 0.55664-0.33203 0-0.5664-0.20508-0.5664-0.52734l-0.09766-6.0352c-0.00977-0.41992-0.25391-0.66406-0.6543-0.66406s-0.63476 0.24414-0.64453 0.66406l-0.09765 6.0352c0 0.32226-0.23438 0.52734-0.56641 0.52734-0.32227 0-0.54688-0.21484-0.54688-0.55664l0.06836-5.8301c0-0.43945-0.22461-0.69336-0.61523-0.69336-0.40039 0-0.6543 0.24414-0.67383 0.67383l-0.26367 5.9961c-0.078125 1.709 0.47852 2.3047 1.7676 2.8711 0.30273 0.13672 0.44922 0.3906 0.44922 0.7324l-0.18555 10.967c-0.00977 0.8008 0.48828 1.2598 1.3086 1.2598zm7.6368-8.5156-0.2051 7.207c-0.0293 0.8496 0.4883 1.3086 1.2988 1.3086 0.8301 0 1.3379-0.4199 1.3379-1.2012v-20.713c0-0.49805-0.3418-0.73242-0.6934-0.73242-0.3711 0-0.6152 0.19531-0.9277 0.6543-1.5723 2.207-2.6074 6.3379-2.6074 10.244v0.4786c0 0.6738 0.24414 1.1718 0.73242 1.4941l0.5762 0.3906c0.3515 0.2442 0.5078 0.5176 0.4883 0.8692z" fill="#fff"/>
</svg>
