<!--Generator: Apple Native CoreSVG 341-->
<!DOCTYPE svg  PUBLIC '-//W3C//DTD SVG 1.1//EN'  'http://www.w3.org/Graphics/SVG/1.1/DTD/svg11.dtd'>
<svg version="1.1" viewBox="0 0 21.953 21.301" xmlns="http://www.w3.org/2000/svg">
 <rect width="21.953" height="21.301" opacity="0"/>
 <path d="m10.791 19.982c0.2442 0 0.4785-0.0098 0.7129-0.0293l0.5371 1.0059c0.127 0.2539 0.3516 0.3515 0.625 0.3222 0.2832-0.0488 0.4492-0.2343 0.4785-0.5078l0.166-1.1328c0.4688-0.1269 0.9083-0.293 1.3379-0.4883l0.8399 0.7617c0.2051 0.1954 0.459 0.2051 0.7031 0.0782 0.2441-0.1368 0.3418-0.3711 0.2832-0.6446l-0.2441-1.1132c0.3906-0.2735 0.7519-0.586 1.0937-0.9082l1.0449 0.4296c0.2637 0.0977 0.5079 0.0391 0.6934-0.1757 0.1855-0.2149 0.2051-0.459 0.0488-0.7032l-0.6054-0.957c0.2636-0.4004 0.498-0.8105 0.7129-1.2305l1.123 0.0391c0.2832 0.0098 0.498-0.127 0.5957-0.4004 0.0977-0.2539 0.0293-0.498-0.1953-0.6641l-0.9082-0.6933c0.1269-0.459 0.2051-0.9278 0.2539-1.416l1.0742-0.3418c0.2734-0.0879 0.4297-0.2832 0.4297-0.5664s-0.1563-0.4883-0.4297-0.5664l-1.0742-0.34184c-0.0488-0.48828-0.127-0.95703-0.2539-1.416l0.8984-0.69336c0.2344-0.16602 0.293-0.41016 0.2051-0.67383-0.0977-0.27344-0.3125-0.40039-0.5957-0.39063l-1.123 0.0293c-0.2149-0.41992-0.4493-0.83984-0.7129-1.2305l0.5957-0.94726c0.1562-0.24415 0.1367-0.49805-0.0293-0.7129-0.1953-0.21484-0.4395-0.26367-0.6934-0.16601l-1.0547 0.42969c-0.3418-0.3418-0.7129-0.64453-1.0937-0.91797l0.2441-1.1035c0.0586-0.2832-0.0391-0.50781-0.2734-0.64453-0.2539-0.14648-0.5078-0.10742-0.7129 0.07813l-0.8496 0.75195c-0.4199-0.19531-0.8692-0.35156-1.3379-0.48828l-0.1563-1.123c-0.0293-0.27344-0.205-0.44922-0.4687-0.50781-0.2832-0.048828-0.5078 0.068359-0.6348 0.3125l-0.5371 1.0059c-0.2344-0.00977-0.4687-0.01953-0.7129-0.01953-0.2344 0-0.4687 0.00976-0.7129 0.01953l-0.52732-0.9961c-0.13672-0.25391-0.36133-0.36133-0.625-0.32227-0.2832 0.048828-0.44922 0.23437-0.48828 0.50781l-0.16602 1.123c-0.45898 0.13672-0.9082 0.30273-1.3379 0.49804l-0.83007-0.76171c-0.20508-0.19532-0.45899-0.21485-0.7129-0.07813-0.24414 0.13672-0.33203 0.37109-0.27343 0.64453l0.23437 1.1133c-0.39062 0.27344-0.75195 0.57618-1.0938 0.90821l-1.0449-0.42969c-0.25391-0.10742-0.50781-0.03906-0.69336 0.17578-0.18555 0.20508-0.19531 0.45898-0.03906 0.70313l0.60547 0.95703c-0.27344 0.39062-0.50782 0.81054-0.71289 1.2305l-1.123-0.03907c-0.29297-0.01953-0.49805 0.12696-0.5957 0.39063-0.10742 0.26367-0.029297 0.50781 0.19531 0.67383l0.89844 0.69336c-0.11719 0.45898-0.20508 0.92773-0.24414 1.416l-1.084 0.34184c-0.27344 0.0781-0.41992 0.2832-0.41992 0.5664s0.14648 0.4785 0.41992 0.5664l1.084 0.3418c0.03906 0.4882 0.12695 0.957 0.24414 1.416l-0.89844 0.6933c-0.22461 0.1661-0.2832 0.4102-0.20508 0.6739 0.10742 0.2734 0.3125 0.4004 0.5957 0.3906l1.1328-0.0391c0.20507 0.4297 0.43945 0.8399 0.71289 1.2403l-0.60547 0.9472c-0.15625 0.2442-0.12695 0.4981 0.03906 0.7032 0.19531 0.2246 0.43945 0.2734 0.69336 0.1757l1.0449-0.4394c0.3418 0.3418 0.71289 0.6445 1.0938 0.9277l-0.23437 1.1035c-0.0586 0.2735 0.03906 0.5078 0.27343 0.6446 0.25391 0.1465 0.50782 0.1172 0.70313-0.0782l0.84961-0.7617c0.42969 0.2051 0.87891 0.3614 1.3379 0.4883l0.15625 1.1231c0.03906 0.2832 0.21484 0.4589 0.47852 0.5175 0.2832 0.0489 0.49804-0.0683 0.63476-0.3222l0.52732-1.0059c0.2442 0.0195 0.4785 0.0293 0.7129 0.0293zm0-1.6211c-4.2578 0-7.7148-3.457-7.7148-7.7148 0-4.2676 3.457-7.7149 7.7148-7.7149 4.2676 0 7.7149 3.4473 7.7149 7.7149 0 4.2578-3.4473 7.7148-7.7149 7.7148zm-1.6992-9.209 1.1523-0.73242-3.2617-5.5957-1.2012 0.67383zm3.877 2.1582h6.4941v-1.3476h-6.4941zm-2.7051 1.5918-1.1426-0.7422-3.4375 5.6055 1.1914 0.7031zm0.5371 0.3028c1.416 0 2.5586-1.1426 2.5586-2.5586s-1.1426-2.5586-2.5586-2.5586-2.5586 1.1426-2.5586 2.5586 1.1426 2.5586 2.5586 2.5586zm0-1.4649c-0.6055 0-1.0938-0.4883-1.0938-1.0937 0-0.6055 0.48827-1.0938 1.0938-1.0938 0.6054 0 1.0937 0.48829 1.0937 1.0938 0 0.6054-0.4883 1.0937-1.0937 1.0937z" fill="#fff"/>
</svg>
