<!--Generator: Apple Native CoreSVG 341-->
<!DOCTYPE svg  PUBLIC '-//W3C//DTD SVG 1.1//EN'  'http://www.w3.org/Graphics/SVG/1.1/DTD/svg11.dtd'>
<svg version="1.1" viewBox="0 0 26.914 28.291" xmlns="http://www.w3.org/2000/svg">
 <rect width="26.914" height="28.291" opacity="0"/>
 <path d="m13.272 17.5c0.8398 0.0098 1.6699-0.2051 2.7051-0.6738l9.6191-4.3946c0.6348-0.2929 0.957-0.8593 0.957-1.4453 0-0.5761-0.3222-1.1426-0.957-1.4355l-9.6191-4.3945c-1.0352-0.46875-1.8653-0.68359-2.7051-0.67383-0.8301-0.00976-1.6602 0.20508-2.7051 0.67383l-9.6094 4.3945c-0.63476 0.29297-0.95703 0.85942-0.95703 1.4355 0 0.586 0.32227 1.1524 0.95703 1.4453l9.6094 4.3946c1.0449 0.4687 1.875 0.6836 2.7051 0.6738zm0-1.543c-0.6445 0-1.2793-0.166-2.1094-0.5468l-8.9941-4.0918c-0.17578-0.0782-0.25391-0.1954-0.25391-0.3321 0-0.1269 0.07813-0.2441 0.25391-0.3222l8.9941-4.0918c0.8301-0.38086 1.4649-0.54688 2.1094-0.54688 0.6543 0 1.2793 0.16602 2.1191 0.54688l8.9942 4.0918c0.166 0.0781 0.2539 0.1953 0.2539 0.3222 0 0.1367-0.0879 0.2539-0.2539 0.3321l-8.9942 4.0918c-0.8398 0.3808-1.4648 0.5468-2.1191 0.5468zm-9.4629 2.3731c0 2.9199 3.7109 5.3906 9.4629 5.3906 5.7617 0 9.4726-2.4707 9.4726-5.3906v-5.1563h-1.5722v5.1563c0 2.041-3.086 3.916-7.9004 3.916-4.8047 0-7.8906-1.875-7.8906-3.916v-5.1563h-1.5723zm9.5019-6.2305c1.0547 0 2.0704-0.4785 2.0704-1.1133 0-0.6152-1.0157-1.084-2.0704-1.084-1.0449 0-2.08 0.46876-2.08 1.084 0 0.6348 1.0351 1.1133 2.08 1.1133zm-5.9374 2.5781 5.791-3.0664-0.5371-1.0058-6.5235 3.3984zm-1.2695 9.5801h1.2695v-9.5801l-1.2695-0.625zm-0.77149 0.1953v2.5684c0 0.7715 0.49805 1.2695 1.2695 1.2695h0.26367c0.77149 0 1.2695-0.498 1.2695-1.2695v-2.5684c0-0.7715-0.49805-1.2695-1.2695-1.2695h-0.26367c-0.77148 0-1.2695 0.498-1.2695 1.2695z" fill="#fff"/>
</svg>
