<!--Generator: Apple Native CoreSVG 341-->
<!DOCTYPE svg  PUBLIC '-//W3C//DTD SVG 1.1//EN'  'http://www.w3.org/Graphics/SVG/1.1/DTD/svg11.dtd'>
<svg version="1.1" viewBox="0 0 23.682 20.557" xmlns="http://www.w3.org/2000/svg">
 <rect width="23.682" height="20.557" opacity="0"/>
 <path d="m8.8281 19.531h5.6641v-6.3085c0-0.4493-0.293-0.7422-0.7422-0.7422h-4.1699c-0.44922 0-0.75196 0.2929-0.75196 0.7422zm-7.9883-9.1015c0.27344 0 0.49805-0.1465 0.70313-0.3125l9.7754-8.2129c0.1074-0.08789 0.2343-0.13672 0.3418-0.13672 0.1171 0 0.2343 0.04883 0.3418 0.13672l9.7851 8.2129c0.1953 0.166 0.4199 0.3125 0.6934 0.3125 0.5273 0 0.8398-0.3809 0.8398-0.78126 0-0.22461-0.0879-0.45899-0.3125-0.63477l-10.176-8.5449c-0.3711-0.3125-0.7715-0.46875-1.1718-0.46875-0.4004 0-0.8008 0.15625-1.1719 0.46875l-10.176 8.5449c-0.21484 0.17578-0.3125 0.41016-0.3125 0.63477 0 0.40036 0.3125 0.78126 0.83984 0.78126zm17.178-5.1856 2.4512 2.0703v-4.4043c0-0.42969-0.2735-0.70313-0.7032-0.70313h-1.0449c-0.4199 0-0.7031 0.27344-0.7031 0.70313zm-12.959 15.293h13.213c1.3867 0 2.1973-0.791 2.1973-2.1582v-10.82l-1.5723-1.0644v11.494c0 0.6347-0.3418 0.9765-0.957 0.9765h-12.549c-0.625 0-0.96679-0.3418-0.96679-0.9765v-11.484l-1.5723 1.0547v10.82c0 1.377 0.81055 2.1582 2.207 2.1582z" fill="#fff"/>
</svg>
