<svg xmlns="http://www.w3.org/2000/svg" viewBox="-5 -85 120 140" fill="white">
  <path d="M46.0938-1.61133L46.0938-23.7305C46.0938-25.5859 47.3633-26.8066 49.2188-26.8066L63.5742-26.8066C65.4785-26.8066 66.6504-25.5859 66.6504-23.7305L66.6504-1.61133ZM22.3145-3.41797C22.3145 2.14844 25.6836 5.41992 31.3477 5.41992L81.4453 5.41992C87.1094 5.41992 90.4785 2.14844 90.4785-3.41797L90.4785-32.2754L58.6426-58.9355C57.2754-60.1074 55.4688-60.0586 54.1504-58.9355L22.3145-32.2754ZM13.5742-33.7891C14.7949-33.7891 15.8203-34.4727 16.6992-35.2051L55.127-67.4805C55.5176-67.8223 56.0059-67.9688 56.3965-67.9688C56.7871-67.9688 57.2266-67.8223 57.6172-67.4805L96.0938-35.2051C96.9727-34.4727 97.998-33.7891 99.2188-33.7891C101.611-33.7891 103.027-35.498 103.027-37.3047C103.027-38.2812 102.588-39.3555 101.66-40.1367L61.2793-74.0234C59.7168-75.293 58.0566-75.9277 56.3965-75.9277C54.7363-75.9277 53.0273-75.293 51.5137-74.0234L11.1328-40.1367C10.2051-39.3555 9.76562-38.2812 9.76562-37.3047C9.76562-35.498 11.1816-33.7891 13.5742-33.7891ZM80.8594-55.8105L91.4062-46.9238L91.4062-64.5996C91.4062-66.4551 90.1855-67.627 88.3301-67.627L83.9355-67.627C82.1289-67.627 80.8594-66.4551 80.8594-64.5996Z"/>
</svg>
