<!--Generator: Apple Native CoreSVG 341-->
<!DOCTYPE svg  PUBLIC '-//W3C//DTD SVG 1.1//EN'  'http://www.w3.org/Graphics/SVG/1.1/DTD/svg11.dtd'>
<svg version="1.1" viewBox="0 0 9.7461 20.127" xmlns="http://www.w3.org/2000/svg">
 <rect width="9.7461" height="20.127" opacity="0"/>
 <path d="m0.14648 18.066c0 0.4297 0.37109 0.7813 0.84961 0.7813h7.9004c0.46875 0 0.84961-0.3516 0.84961-0.7813s-0.38086-0.7617-0.84961-0.7617h-2.7539v-9.7754c0-0.48828-0.38086-0.87891-0.84961-0.87891h-3.9356c-0.48828 0-0.86914 0.33203-0.86914 0.75195 0 0.44922 0.38086 0.79102 0.86914 0.79102h2.9688v9.1113h-3.3301c-0.47852 0-0.84961 0.332-0.84961 0.7617zm4.6387-14.951c0.85937 0 1.5527-0.69335 1.5527-1.5625 0-0.85937-0.69336-1.5527-1.5527-1.5527-0.85938 0-1.5527 0.69336-1.5527 1.5527 0 0.86915 0.69336 1.5625 1.5527 1.5625z" fill="#fff"/>
</svg>
