<!--Generator: Apple Native CoreSVG 341-->
<!DOCTYPE svg  PUBLIC '-//W3C//DTD SVG 1.1//EN'  'http://www.w3.org/Graphics/SVG/1.1/DTD/svg11.dtd'>
<svg version="1.1" viewBox="0 0 12.91 20.693" xmlns="http://www.w3.org/2000/svg">
 <rect width="12.91" height="20.693" opacity="0"/>
 <path d="m2.6562 20.674h7.2363c1.5918 0 2.6562-1.0156 2.6562-2.539v-15.596c0-1.5234-1.0644-2.5391-2.6562-2.5391h-7.2363c-1.5918 0-2.6562 1.0156-2.6562 2.5391v15.596c0 1.5234 1.0644 2.539 2.6562 2.539zm0.20508-1.5722c-0.83008 0-1.2891-0.4395-1.2891-1.2207v-15.088c0-0.78125 0.45898-1.2207 1.2891-1.2207h6.8359c0.82033 0 1.2793 0.43945 1.2793 1.2207v15.088c0 0.7812-0.459 1.2207-1.2793 1.2207zm1.3476-0.7129h4.1504c0.26367 0 0.44921-0.1856 0.44921-0.459 0-0.2735-0.18554-0.4492-0.44921-0.4492h-4.1504c-0.26367 0-0.45898 0.1757-0.45898 0.4492 0 0.2734 0.19531 0.459 0.45898 0.459zm0.88868-14.746h2.3633c0.38086 0 0.68359-0.30274 0.68359-0.69336 0-0.38086-0.30273-0.6836-0.68359-0.6836h-2.3633c-0.39063 0-0.69336 0.30274-0.69336 0.6836 0 0.39062 0.30273 0.69336 0.69336 0.69336z" fill="#fff"/>
</svg>
