<!--Generator: Apple Native CoreSVG 341-->
<!DOCTYPE svg  PUBLIC '-//W3C//DTD SVG 1.1//EN'  'http://www.w3.org/Graphics/SVG/1.1/DTD/svg11.dtd'>
<svg version="1.1" viewBox="0 0 20.117 10.029" xmlns="http://www.w3.org/2000/svg">
 <rect width="20.117" height="10.029" opacity="0"/>
 <path d="m0.73242 10.029h18.281c0.4101 0 0.7422-0.33203 0.7422-0.75196 0-0.41015-0.3321-0.73242-0.7422-0.73242h-18.281c-0.41016 0-0.73242 0.32227-0.73242 0.73242 0 0.41993 0.32227 0.75196 0.73242 0.75196z" fill="#fff"/>
 <path d="m0.73242 5.7617h18.281c0.4101 0 0.7422-0.32227 0.7422-0.73242 0-0.41992-0.3321-0.75196-0.7422-0.75196h-18.281c-0.41016 0-0.73242 0.33204-0.73242 0.75196 0 0.41015 0.32227 0.73242 0.73242 0.73242z" fill="#fff"/>
 <path d="m0.73242 1.5039h18.281c0.4101 0 0.7422-0.32227 0.7422-0.73243s-0.3321-0.74219-0.7422-0.74219h-18.281c-0.41016 0-0.73242 0.33203-0.73242 0.74219s0.32227 0.73243 0.73242 0.73243z" fill="#fff"/>
</svg>
