<!--Generator: Apple Native CoreSVG 341-->
<!DOCTYPE svg  PUBLIC '-//W3C//DTD SVG 1.1//EN'  'http://www.w3.org/Graphics/SVG/1.1/DTD/svg11.dtd'>
<svg version="1.1" viewBox="0 0 19.053 18.252" xmlns="http://www.w3.org/2000/svg">
 <rect width="19.053" height="18.252" opacity="0"/>
 <path d="m18.34 17.197c0-0.4297-0.3515-0.752-0.83-0.752h-13.145c-0.47851 0-0.83007 0.3223-0.83007 0.752s0.35156 0.7617 0.83007 0.7617h13.145c0.4785 0 0.83-0.332 0.83-0.7617z" fill="#fff"/>
 <path d="m2.3047 17.197c0-0.5762-0.46875-1.0645-1.0645-1.0645-0.57617 0-1.0449 0.4883-1.0449 1.0645 0 0.5859 0.46875 1.0547 1.0449 1.0547 0.59571 0 1.0645-0.4688 1.0645-1.0547z" fill="#fff"/>
 <path d="m18.34 13.369c0-0.4296-0.3515-0.7519-0.83-0.7519h-13.145c-0.47851 0-0.83007 0.3223-0.83007 0.7519 0 0.4297 0.35156 0.7618 0.83007 0.7618h13.145c0.4785 0 0.83-0.3321 0.83-0.7618z" fill="#fff"/>
 <path d="m2.3047 13.369c0-0.5761-0.46875-1.0546-1.0645-1.0546-0.57617 0-1.0449 0.4785-1.0449 1.0546 0 0.586 0.46875 1.045 1.0449 1.045 0.59571 0 1.0645-0.459 1.0645-1.045z" fill="#fff"/>
 <path d="m2.7051 0.23438c-1.9922 0-2.7051 0.86914-2.7051 2.7637v4.541c0 1.8945 0.71289 2.7636 2.7051 2.7636h13.281c1.9922 0 2.7051-0.86911 2.7051-2.7636v-4.541c0-1.8945-0.7129-2.7637-2.7051-2.7637zm-1.1328 7.3535v-4.6387c0-0.86914 0.2832-1.25 1.1426-1.25h13.262c0.8593 0 1.1425 0.38086 1.1425 1.25v4.6387c0 0.86914-0.2832 1.25-1.1425 1.25h-13.262c-0.85937 0-1.1426-0.38086-1.1426-1.25z" fill="#fff"/>
</svg>
