<!--Generator: Apple Native CoreSVG 341-->
<!DOCTYPE svg  PUBLIC '-//W3C//DTD SVG 1.1//EN'  'http://www.w3.org/Graphics/SVG/1.1/DTD/svg11.dtd'>
<svg version="1.1" viewBox="0 0 20.674 19.268" xmlns="http://www.w3.org/2000/svg">
 <rect width="20.674" height="19.268" opacity="0"/>
 <path d="m1.1035 18.887c0.24414 0 0.49804-0.0879 0.81054-0.2637l4.9707-2.6757 5.4004 3.0273c0.3515 0.1953 0.7324 0.293 1.0937 0.293 0.3418 0 0.6836-0.0879 0.9766-0.2539l5.1074-2.9004c0.5859-0.3223 0.8496-0.791 0.8496-1.4453v-13.154c0-0.72265-0.4004-1.123-1.1035-1.123-0.2442 0-0.4981 0.078125-0.8203 0.25391l-5.1758 2.8809-5.3027-3.252c-0.30274-0.17578-0.64454-0.27344-0.98633-0.27344-0.35156 0-0.70313 0.097656-1.0059 0.27344l-5.0781 2.8906c-0.57617 0.33203-0.83984 0.80078-0.83984 1.4551v13.135c0 0.7227 0.40039 1.1328 1.1035 1.1328zm5.1465-4.4922-4.4043 2.4219c-0.04882 0.0195-0.09765 0.0488-0.14648 0.0488-0.07813 0-0.12695-0.0586-0.12695-0.1562v-11.709c0-0.23438 0.08789-0.40039 0.32226-0.53711l4.0039-2.3438c0.12695-0.06836 0.23437-0.12695 0.35156-0.19531zm1.5723 0.1563v-12.422c0.09765 0.05859 0.21484 0.11718 0.3125 0.17578l4.3554 2.6562v12.207c-0.1367-0.0782-0.2832-0.1465-0.4297-0.2246zm6.2402 2.793v-12.481l4.4043-2.4023c0.0488-0.0293 0.0977-0.04883 0.1367-0.04883 0.0879 0 0.1367 0.05859 0.1367 0.15625v11.709c0 0.2442-0.0976 0.4102-0.3222 0.5469l-3.916 2.2754c-0.1465 0.0879-0.293 0.1758-0.4395 0.2442z" fill="#fff"/>
</svg>
