<!--Generator: Apple Native CoreSVG 341-->
<!DOCTYPE svg  PUBLIC '-//W3C//DTD SVG 1.1//EN'  'http://www.w3.org/Graphics/SVG/1.1/DTD/svg11.dtd'>
<svg version="1.1" viewBox="0 0 20.837 22.972" xmlns="http://www.w3.org/2000/svg">
 <rect width="20.837" height="22.972" opacity="0"/>
 <path d="m14.531 2.7204-1.036 1.036c-1.5873-0.93811-3.3766-1.4841-5.1468-1.4841-4.248 0-6.7969 3.0078-6.7969 6.8945 0 4.6386 3.5449 10 10.518 11.006 0.4492 0.0586 0.6641 0.3809 0.6641 0.7031 0 0.3516-0.2832 0.7227-0.8301 0.6543-6.2305-0.6054-11.729-5.8984-11.729-12.324 0-4.707 3.1738-8.3105 8.2129-8.3105 2.1176 0 4.2673 0.66515 6.1437 1.825zm5.7801 9.6301c0 3.4375-2.3633 5.7617-5.7129 5.7617-2.253 0-4.7139-1.0479-6.6216-2.7462l1.499-0.6635c1.5306 1.2855 3.3888 2.1011 5.1031 2.1011 2.3925 0 4.3847-1.6895 4.3847-4.4629 0-1.8534-0.6561-3.6391-1.7423-5.1729l1.019-1.0151c1.2857 1.7743 2.071 3.8997 2.071 6.1978z" fill="#fff"/>
 <path d="m8.7878 13.474 8.7696-8.7598-1.4551-1.4453-8.7598 8.75-0.81054 1.8653c-0.07813 0.205 0.12695 0.4199 0.34179 0.3418zm9.4824-9.4629 0.7812-0.78125c0.3711-0.3711 0.3906-0.91797 0.0098-1.2695l-0.2539-0.23437c-0.3321-0.3125-0.8594-0.3125-1.211 0.03906l-0.7714 0.79102z" fill="#fff"/>
</svg>
