<!--Generator: Apple Native CoreSVG 341-->
<!DOCTYPE svg  PUBLIC '-//W3C//DTD SVG 1.1//EN'  'http://www.w3.org/Graphics/SVG/1.1/DTD/svg11.dtd'>
<svg version="1.1" viewBox="0 0 22.08 17.998" xmlns="http://www.w3.org/2000/svg">
 <rect width="22.08" height="17.998" opacity="0"/>
 <path d="m13.535 17.998h6.3183c1.2403 0 1.8653-0.6152 1.8653-1.9042v-4.375c0-1.2793-0.625-1.9044-1.8653-1.9044h-6.3183c-1.2403 0-1.8653 0.62505-1.8653 1.9044v4.375c0 1.289 0.625 1.9042 1.8653 1.9042zm0.0293-1.3769c-0.3516 0-0.5176-0.1758-0.5176-0.5273v-4.3653c0-0.3613 0.166-0.5371 0.5176-0.5371h6.2695c0.3418 0 0.5078 0.1758 0.5078 0.5371v4.3653c0 0.3515-0.166 0.5273-0.5078 0.5273z" fill="#fff"/>
 <path d="m1.8652 17.998h6.3184c1.2402 0 1.8652-0.6152 1.8652-1.9042v-4.375c0-1.2793-0.62497-1.9044-1.8652-1.9044h-6.3184c-1.2402 0-1.8652 0.62505-1.8652 1.9044v4.375c0 1.289 0.625 1.9042 1.8652 1.9042zm0.01954-1.3769c-0.3418 0-0.50782-0.1758-0.50782-0.5273v-4.3653c0-0.3613 0.16602-0.5371 0.50782-0.5371h6.2695c0.34179 0 0.51758 0.1758 0.51758 0.5371v4.3653c0 0.3515-0.17579 0.5273-0.51758 0.5273z" fill="#fff"/>
 <path d="m13.535 8.2031h6.3183c1.2403 0 1.8653-0.625 1.8653-1.9141v-4.3652c0-1.2891-0.625-1.9043-1.8653-1.9043h-6.3183c-1.2403 0-1.8653 0.61523-1.8653 1.9043v4.3652c0 1.2891 0.625 1.9141 1.8653 1.9141zm0.0293-1.377c-0.3516 0-0.5176-0.17578-0.5176-0.53711v-4.3652c0-0.35156 0.166-0.52735 0.5176-0.52735h6.2695c0.3418 0 0.5078 0.17579 0.5078 0.52735v4.3652c0 0.36133-0.166 0.53711-0.5078 0.53711z" fill="#fff"/>
 <path d="m1.8652 8.2031h6.3184c1.2402 0 1.8652-0.625 1.8652-1.9141v-4.3652c0-1.2891-0.62497-1.9043-1.8652-1.9043h-6.3184c-1.2402 0-1.8652 0.61523-1.8652 1.9043v4.3652c0 1.2891 0.625 1.9141 1.8652 1.9141zm0.01954-1.377c-0.3418 0-0.50782-0.17578-0.50782-0.53711v-4.3652c0-0.35156 0.16602-0.52735 0.50782-0.52735h6.2695c0.34179 0 0.51758 0.17579 0.51758 0.52735v4.3652c0 0.36133-0.17579 0.53711-0.51758 0.53711z" fill="#fff"/>
</svg>
