<!--Generator: Apple Native CoreSVG 341-->
<!DOCTYPE svg  PUBLIC '-//W3C//DTD SVG 1.1//EN'  'http://www.w3.org/Graphics/SVG/1.1/DTD/svg11.dtd'>
<svg version="1.1" viewBox="0 0 20.039 16.924" xmlns="http://www.w3.org/2000/svg">
 <rect width="20.039" height="16.924" opacity="0"/>
 <path d="m9.4727 16.904h9.4043c0.4394 0 0.8007-0.3418 0.8007-0.7813 0-0.4394-0.3613-0.791-0.8007-0.791h-9.4043c-0.44922 0-0.79102 0.3516-0.79102 0.791 0 0.4395 0.3418 0.7813 0.79102 0.7813z" fill="#fff"/>
 <path d="m9.4727 11.797h9.4043c0.4394 0 0.8007-0.3418 0.8007-0.7813 0-0.4492-0.3613-0.791-0.8007-0.791h-9.4043c-0.44922 0-0.79102 0.3418-0.79102 0.791 0 0.4395 0.3418 0.7813 0.79102 0.7813z" fill="#fff"/>
 <path d="m1.6992 16.904h3.1934c1.0742 0 1.6992-0.6152 1.6992-1.6504v-3.2812c0-1.0352-0.625-1.6602-1.6992-1.6602h-3.1934c-1.0742 0-1.6992 0.625-1.6992 1.6602v3.2812c0 1.0352 0.625 1.6504 1.6992 1.6504z" fill="#fff"/>
 <path d="m9.4727 6.6894h9.4043c0.4394 0 0.8007-0.35156 0.8007-0.79101 0-0.43946-0.3613-0.78125-0.8007-0.78125h-9.4043c-0.44922 0-0.79102 0.34179-0.79102 0.78125 0 0.43945 0.3418 0.79101 0.79102 0.79101z" fill="#fff"/>
 <path d="m9.4727 1.5723h9.4043c0.4394 0 0.8007-0.3418 0.8007-0.78125s-0.3613-0.79102-0.8007-0.79102h-9.4043c-0.44922 0-0.79102 0.35156-0.79102 0.79102s0.3418 0.78125 0.79102 0.78125z" fill="#fff"/>
 <path d="m1.6992 6.5918h3.1934c1.0742 0 1.6992-0.61524 1.6992-1.6504v-3.2812c0-1.0352-0.625-1.6602-1.6992-1.6602h-3.1934c-1.0742 0-1.6992 0.625-1.6992 1.6602v3.2812c0 1.0352 0.625 1.6504 1.6992 1.6504z" fill="#fff"/>
</svg>
