<!--Generator: Apple Native CoreSVG 341-->
<!DOCTYPE svg  PUBLIC '-//W3C//DTD SVG 1.1//EN'  'http://www.w3.org/Graphics/SVG/1.1/DTD/svg11.dtd'>
<svg version="1.1" viewBox="0 0 23.389 17.978" xmlns="http://www.w3.org/2000/svg">
 <rect width="23.389" height="17.978" opacity="0"/>
 <path d="m0.44922 7.041h22.236v-1.5723h-22.236zm0 5.4785h22.236v-1.5722h-22.236zm10.283 5.0196h1.5723v-17.09h-1.5723zm-7.666 0.4394h16.894c2.0508 0 3.0664-1.0058 3.0664-3.0176v-11.934c0-2.0117-1.0156-3.0273-3.0664-3.0273h-16.894c-2.041 0-3.0664 1.0156-3.0664 3.0273v11.934c0 2.0118 1.0254 3.0176 3.0664 3.0176zm0.01953-1.5723c-0.97656 0-1.5137-0.5175-1.5137-1.5332v-11.758c0-1.0156 0.53711-1.543 1.5137-1.543h16.855c0.9668 0 1.5137 0.52734 1.5137 1.543v11.758c0 1.0157-0.5469 1.5332-1.5137 1.5332z" fill="#fff"/>
</svg>
