<svg xmlns="http://www.w3.org/2000/svg" viewBox="-5 -80 130 120" fill="white">
  <path d="M17.9199-39.3066H94.1895V-51.5137H17.9199ZM17.9199-18.9453H94.1895V-31.1523H17.9199ZM49.4629-6.83594H62.6465V-63.5742H49.4629ZM25 2.92969H87.1094C96.6797 2.92969 102.344-2.73438 102.344-12.3047V-58.1055C102.344-67.6758 96.6797-73.3398 87.1094-73.3398H25C15.4297-73.3398 9.76562-67.6758 9.76562-58.1055V-12.3047C9.76562-2.73438 15.4297 2.92969 25 2.92969ZM27.2461-11.2305C25-11.2305 23.9258-12.1094 23.9258-14.5508V-55.8594C23.9258-58.3008 25-59.1797 27.2461-59.1797H84.8633C87.1094-59.1797 88.1836-58.3008 88.1836-55.8594V-14.5508C88.1836-12.1094 87.1094-11.2305 84.8633-11.2305Z"/>
</svg>
