<!--Generator: Apple Native CoreSVG 341-->
<!DOCTYPE svg  PUBLIC '-//W3C//DTD SVG 1.1//EN'  'http://www.w3.org/Graphics/SVG/1.1/DTD/svg11.dtd'>
<svg version="1.1" viewBox="0 0 19.268 23.486" xmlns="http://www.w3.org/2000/svg">
 <rect width="19.268" height="23.486" opacity="0"/>
 <path d="m6.5625 18.604c0.37109 0 0.61523-0.2344 0.60547-0.5762l-0.30274-10.449c-0.00976-0.34179-0.2539-0.5664-0.60546-0.5664-0.3711 0-0.61524 0.23437-0.60547 0.57617l0.29297 10.439c0.00976 0.3516 0.2539 0.5762 0.61523 0.5762zm2.8906 0c0.3711 0 0.63478-0.2344 0.63478-0.5762v-10.439c0-0.3418-0.26368-0.57617-0.63478-0.57617-0.37109 0-0.625 0.23437-0.625 0.57617v10.439c0 0.3418 0.25391 0.5762 0.625 0.5762zm2.9004 0c0.3516 0 0.5957-0.2246 0.6055-0.5762l0.293-10.439c0.0097-0.3418-0.2344-0.57617-0.6055-0.57617-0.3516 0-0.5957 0.22461-0.6055 0.57617l-0.293 10.439c-0.0097 0.3418 0.2344 0.5762 0.6055 0.5762zm-7.1875-14.141h1.5527v-2.0898c0-0.55664 0.39063-0.91797 0.97656-0.91797h3.4961c0.5859 0 0.9766 0.36133 0.9766 0.91797v2.0898h1.5527v-2.1875c0-1.416-0.918-2.2754-2.4219-2.2754h-3.7109c-1.5039 0-2.4219 0.85938-2.4219 2.2754zm-4.4336 0.78125h17.451c0.4004 0 0.7226-0.3418 0.7226-0.74219s-0.3222-0.73242-0.7226-0.73242h-17.451c-0.39062 0-0.73242 0.33203-0.73242 0.73242 0 0.41016 0.3418 0.74219 0.73242 0.74219zm4.248 16.504h8.955c1.3965 0 2.334-0.9082 2.4024-2.3046l0.6836-14.385h-1.5723l-0.6543 14.219c-0.0195 0.586-0.4394 0.9961-1.0156 0.9961h-8.6621c-0.55664 0-0.97657-0.4199-1.0059-0.9961l-0.69336-14.219h-1.5332l0.69335 14.395c0.06836 1.3965 0.98633 2.2949 2.4024 2.2949z" fill="#fff"/>
</svg>
